<?xml version="1.0" standalone="no"?>
<!DOCTYPE svg PUBLIC "-//W3C//DTD SVG 20010904//EN"
 "http://www.w3.org/TR/2001/REC-SVG-20010904/DTD/svg10.dtd">
<svg version="1.0" xmlns="http://www.w3.org/2000/svg"
 width="264.000000pt" height="264.000000pt" viewBox="0 0 264.000000 264.000000"
 preserveAspectRatio="xMidYMid meet">
<metadata>
Created by potrace 1.11, written by Peter Selinger 2001-2013
</metadata>
<g transform="translate(0.000000,264.000000) scale(0.100000,-0.100000)"
fill="#000000" stroke="none">
<path d="M1675 2632 c-11 -2 -105 -21 -210 -44 -104 -22 -201 -42 -213 -44
-54 -10 -285 -64 -289 -67 -2 -2 53 -40 123 -83 69 -43 132 -85 139 -91 8 -7
16 -13 19 -13 3 0 41 -24 85 -52 44 -29 137 -89 206 -133 69 -44 176 -112 238
-152 61 -39 114 -70 118 -67 4 2 6 140 5 306 -1 274 -3 306 -20 337 -39 73
-125 118 -201 103z"/>
<path d="M353 1953 c2 -370 3 -389 22 -416 11 -15 88 -70 170 -123 83 -52 255
-162 383 -245 154 -99 245 -151 270 -155 23 -3 82 5 157 21 66 15 129 28 140
30 116 22 645 140 645 144 0 3 -35 28 -78 54 -42 27 -135 86 -207 133 -71 46
-137 87 -145 91 -8 4 -60 36 -115 72 -197 127 -231 149 -315 201 -47 29 -114
72 -150 95 -219 143 -762 485 -770 485 -5 0 -8 -164 -7 -387z"/>
<path d="M2165 1094 c-60 -13 -184 -40 -275 -60 -91 -20 -203 -44 -250 -54
-200 -42 -236 -49 -260 -54 -14 -3 -131 -28 -260 -56 -129 -29 -246 -54 -260
-56 -14 -3 -54 -12 -90 -20 -61 -14 -131 -29 -190 -40 -69 -13 -143 -35 -166
-50 -14 -10 -34 -34 -44 -54 -17 -33 -19 -63 -18 -338 0 -246 2 -302 13 -302
8 0 47 7 87 16 40 8 84 18 98 20 14 3 86 19 160 35 74 16 149 32 165 35 17 3
46 9 65 14 19 5 50 12 69 15 19 3 37 7 40 9 3 2 22 7 41 10 19 3 215 44 435
92 220 47 409 88 420 90 11 2 30 6 43 9 82 18 171 36 177 35 3 0 18 6 33 14
32 17 64 52 79 86 12 28 17 631 5 629 -4 -1 -56 -12 -117 -25z"/>
</g>
</svg>
